<svg width="282" height="282" viewBox="0 0 282 282" fill="none" xmlns="http://www.w3.org/2000/svg">
<g clip-path="url(#clip0_90_6)">
<path fill-rule="evenodd" clip-rule="evenodd" d="M6.20117 99.5358C15.566 112.462 33.2593 119.794 49.9824 109.887C46.6084 119.888 44.8684 130.407 44.8623 141.006C44.6945 176.158 63.9658 209.99 96.8105 227.342C103.139 230.686 109.873 233.096 117.056 235.03L118.271 235.349C122.529 236.438 125.903 237.228 129.27 237.733C130.028 237.816 130.79 237.886 131.554 237.952C132.727 238.026 133.5 238.091 133.5 238.091C133.7 238.104 135.647 238.248 135.898 238.255C138.509 238.327 141.071 238.505 143.41 238.47C150.526 221.395 165.097 208.836 182.289 205.535C184.903 205.033 187.798 204.959 190.402 204.571C203.701 202.595 214.898 199.631 225.928 194.651C227.569 193.91 229.207 193.124 230.848 192.29C234.012 190.681 237.187 188.895 240.416 186.903L240.809 186.669C241.99 185.988 243.204 185.485 244.429 185.148C244.439 185.145 244.45 185.143 244.46 185.14C244.991 184.995 245.524 184.881 246.058 184.798C246.083 184.794 246.109 184.791 246.135 184.788C246.248 184.771 246.363 184.755 246.477 184.741C246.496 184.738 246.516 184.736 246.535 184.734C246.64 184.721 246.745 184.709 246.85 184.699C246.907 184.693 246.966 184.688 247.023 184.683C247.106 184.676 247.189 184.669 247.271 184.664C247.332 184.66 247.393 184.656 247.454 184.653C247.52 184.649 247.586 184.645 247.651 184.642C247.721 184.639 247.792 184.637 247.861 184.635C247.942 184.633 248.024 184.631 248.104 184.631C248.127 184.63 248.15 184.631 248.173 184.631C248.29 184.63 248.408 184.629 248.524 184.631C248.545 184.632 248.566 184.633 248.587 184.633C248.695 184.636 248.803 184.639 248.911 184.644C248.949 184.646 248.987 184.648 249.024 184.65C249.118 184.655 249.213 184.66 249.307 184.667C249.356 184.67 249.406 184.675 249.455 184.679C249.544 184.687 249.634 184.695 249.723 184.704C249.769 184.708 249.817 184.713 249.863 184.718C249.94 184.727 250.017 184.736 250.093 184.746C250.169 184.755 250.245 184.766 250.32 184.777C250.378 184.785 250.436 184.793 250.493 184.802C250.556 184.812 250.618 184.822 250.681 184.833C250.76 184.846 250.839 184.859 250.918 184.874C250.97 184.883 251.022 184.894 251.073 184.904C251.156 184.92 251.24 184.937 251.322 184.955C251.37 184.965 251.418 184.975 251.465 184.986C251.55 185.005 251.636 185.025 251.721 185.045C251.771 185.058 251.822 185.071 251.873 185.084C251.945 185.102 252.017 185.12 252.088 185.139C252.16 185.159 252.233 185.178 252.305 185.199C252.365 185.216 252.426 185.234 252.486 185.251C252.546 185.269 252.606 185.289 252.666 185.307C252.735 185.329 252.804 185.35 252.873 185.373C252.95 185.398 253.027 185.423 253.104 185.45C253.151 185.466 253.198 185.483 253.245 185.499C253.314 185.524 253.384 185.549 253.453 185.575C253.518 185.599 253.584 185.623 253.648 185.648C253.725 185.677 253.801 185.707 253.877 185.738C253.915 185.753 253.954 185.769 253.992 185.785C254.085 185.823 254.179 185.862 254.271 185.903C254.304 185.917 254.337 185.932 254.37 185.947C254.458 185.985 254.546 186.024 254.633 186.065C254.677 186.085 254.722 186.107 254.767 186.128C254.849 186.167 254.932 186.207 255.015 186.247C255.053 186.266 255.092 186.286 255.131 186.306C255.216 186.349 255.301 186.392 255.385 186.437C255.426 186.459 255.468 186.481 255.51 186.503C255.589 186.546 255.669 186.589 255.748 186.633C255.786 186.654 255.825 186.677 255.863 186.698C255.954 186.75 256.044 186.802 256.134 186.856C256.16 186.871 256.187 186.888 256.214 186.903C256.301 186.956 256.389 187.009 256.476 187.063C256.527 187.095 256.579 187.128 256.63 187.161C256.684 187.196 256.74 187.23 256.794 187.266C256.875 187.319 256.956 187.374 257.037 187.429C257.074 187.454 257.112 187.479 257.148 187.504C257.218 187.552 257.288 187.601 257.357 187.65C257.414 187.691 257.471 187.731 257.527 187.772C257.569 187.803 257.611 187.835 257.653 187.866C257.736 187.928 257.819 187.99 257.901 188.053C257.922 188.068 257.943 188.084 257.964 188.1C258.05 188.167 258.136 188.235 258.222 188.304C258.277 188.348 258.332 188.393 258.387 188.438C258.434 188.477 258.483 188.517 258.53 188.556C258.593 188.609 258.656 188.664 258.719 188.718C258.776 188.767 258.834 188.817 258.891 188.868C258.945 188.916 259 188.965 259.055 189.014C259.1 189.055 259.145 189.096 259.189 189.137C259.268 189.209 259.345 189.283 259.423 189.357C259.454 189.386 259.486 189.415 259.517 189.445C259.568 189.495 259.619 189.546 259.67 189.596C259.939 189.861 260.203 190.136 260.46 190.42C260.617 190.594 260.771 190.772 260.923 190.952C260.97 191.008 261.018 191.063 261.064 191.119C261.105 191.168 261.144 191.218 261.184 191.268C261.338 191.458 261.491 191.653 261.64 191.851C261.723 191.962 261.807 192.075 261.889 192.188C261.896 192.199 261.904 192.21 261.912 192.221C261.954 192.279 261.995 192.339 262.037 192.398C262.555 193.132 263.038 193.912 263.479 194.737C263.542 194.853 263.603 194.97 263.664 195.088C263.767 195.268 263.867 195.448 263.964 195.629C264.028 195.749 264.089 195.871 264.15 195.991C264.183 196.056 264.217 196.121 264.249 196.186C264.399 196.489 264.538 196.795 264.669 197.102C264.698 197.171 264.728 197.24 264.757 197.309C264.806 197.427 264.851 197.546 264.897 197.665C264.924 197.733 264.952 197.801 264.978 197.87C265.019 197.979 265.058 198.09 265.097 198.2C265.125 198.28 265.154 198.36 265.182 198.441C265.187 198.456 265.191 198.472 265.196 198.487C265.802 201.456 265.508 206.247 263.777 210.369C241.626 249.477 201.323 276.953 154.312 281.354C138.45 282.877 122.839 281.672 107.996 278.091C107.609 277.998 107.223 277.902 106.838 277.806C106.797 277.796 106.756 277.787 106.716 277.777L106.715 277.776C45.9766 262.606 0.838077 208.057 0.0117188 142.828L0 141.006C0 126.573 2.17048 112.647 6.20117 99.5358ZM228 228.655C226.46 222.632 220.328 218.997 214.304 220.536C208.279 222.075 204.643 228.207 206.183 234.23C207.722 240.253 212.941 247.026 220.577 245.075C228.212 243.123 229.54 234.678 228 228.655Z" fill="white"/>
<path fill-rule="evenodd" clip-rule="evenodd" d="M118.396 1.83941C131.605 -0.321086 144.811 -0.54579 157.673 0.993895L157.68 1.01537C227.69 9.26477 282 68.7935 282 141.006L281.994 142.358C281.863 156.309 279.704 169.775 275.799 182.477C266.434 169.551 248.741 162.218 232.018 172.125C235.286 162.438 237.021 152.263 237.132 142L237.138 141.039C237.31 104.979 217.025 70.2729 182.615 53.3574L181.484 52.8097C178.585 51.4299 176.117 50.299 173.748 49.3427C167.047 46.8276 160.204 45.7165 152.834 44.708L151.588 44.5439C147.227 44.0034 143.779 43.6484 140.376 43.5735C139.77 43.5844 139.162 43.6027 138.554 43.6252C131.425 60.6576 116.875 73.1822 99.7109 76.4774C97.0967 76.9791 94.2018 77.054 91.5977 77.441C78.2994 79.418 67.1018 82.3815 56.0723 87.3617C54.4308 88.1027 52.7927 88.8887 51.1523 89.7225C47.9884 91.3313 44.8133 93.1177 41.584 95.1091L41.1914 95.3434C40.0096 96.0243 38.796 96.5277 37.5713 96.8645C37.5611 96.8673 37.5502 96.8696 37.54 96.8723C37.0093 97.017 36.476 97.1314 35.9424 97.2141C35.9169 97.218 35.8907 97.221 35.8652 97.2248C35.7515 97.2418 35.6372 97.2574 35.5234 97.2717C35.5041 97.2741 35.4842 97.2762 35.4648 97.2785C35.3602 97.2912 35.255 97.3033 35.1504 97.3137C35.0927 97.3193 35.0343 97.3243 34.9766 97.3293C34.8941 97.3364 34.811 97.3431 34.7285 97.3488C34.6679 97.353 34.6065 97.3561 34.5459 97.3595C34.4803 97.3632 34.4142 97.3675 34.3486 97.3703C34.2788 97.3732 34.2084 97.3752 34.1387 97.3771C34.0578 97.3794 33.9763 97.3811 33.8955 97.382C33.8729 97.3822 33.8497 97.3819 33.8271 97.382C33.7101 97.3827 33.5925 97.3832 33.4756 97.381C33.455 97.3806 33.4337 97.3795 33.4131 97.3791C33.3051 97.3766 33.1967 97.3732 33.0889 97.3683C33.0513 97.3666 33.0131 97.3645 32.9756 97.3625C32.8817 97.3575 32.7871 97.3527 32.6934 97.3459C32.644 97.3423 32.5942 97.3373 32.5449 97.3332C32.4559 97.3258 32.3663 97.3178 32.2773 97.3088C32.2307 97.304 32.1834 97.2993 32.1367 97.2941C32.0604 97.2856 31.9835 97.2765 31.9072 97.2668C31.8315 97.2572 31.7553 97.2463 31.6797 97.2355C31.6222 97.2273 31.5642 97.2191 31.5068 97.2102C31.4445 97.2005 31.3816 97.1904 31.3193 97.1799C31.2404 97.1666 31.1608 97.1534 31.082 97.1389C31.0304 97.1293 30.9783 97.1187 30.9268 97.1086C30.8439 97.0924 30.7604 97.0755 30.6777 97.0579C30.6304 97.0477 30.5825 97.0372 30.5352 97.0266C30.4499 97.0076 30.3643 96.9876 30.2793 96.9671C30.2286 96.9548 30.1775 96.9418 30.127 96.929C30.0555 96.9109 29.9834 96.8925 29.9121 96.8733C29.84 96.854 29.7673 96.8342 29.6953 96.8138C29.6349 96.7966 29.5739 96.779 29.5137 96.761C29.4538 96.7432 29.3937 96.7239 29.334 96.7054C29.2651 96.684 29.1956 96.6624 29.127 96.64C29.0502 96.6149 28.973 96.5891 28.8965 96.5628C28.8494 96.5467 28.8019 96.5297 28.7549 96.513C28.6856 96.4885 28.6159 96.4634 28.5469 96.4379C28.4819 96.4138 28.4163 96.3896 28.3516 96.3646C28.2754 96.3353 28.1989 96.3053 28.123 96.2748C28.0848 96.2594 28.046 96.2437 28.0078 96.228C27.9146 96.1896 27.8212 96.15 27.7285 96.1098C27.6957 96.0956 27.6626 96.0804 27.6299 96.0659C27.5423 96.0272 27.4543 95.9881 27.3672 95.9477C27.3226 95.9271 27.2779 95.9054 27.2334 95.8843C27.1508 95.8451 27.0675 95.8058 26.9854 95.7652C26.9467 95.746 26.9077 95.726 26.8691 95.7066C26.7844 95.6639 26.6995 95.62 26.6152 95.5758C26.5737 95.5539 26.5317 95.5316 26.4902 95.5094C26.4108 95.4667 26.3309 95.4235 26.252 95.3795C26.2136 95.3581 26.175 95.3358 26.1367 95.3141C26.0463 95.2628 25.9559 95.21 25.8662 95.1569C25.8396 95.1412 25.8127 95.125 25.7861 95.1091C25.6989 95.0567 25.611 95.0039 25.5244 94.9499C25.4728 94.9177 25.4215 94.8841 25.3701 94.8513C25.3157 94.8166 25.2602 94.7823 25.2061 94.7468C25.1247 94.6936 25.0437 94.6385 24.9629 94.5838C24.926 94.5588 24.8883 94.5339 24.8516 94.5086C24.7818 94.4605 24.7119 94.4114 24.6426 94.3622C24.5859 94.3219 24.529 94.2811 24.4727 94.2401C24.4305 94.2094 24.3886 94.1775 24.3467 94.1464C24.2639 94.085 24.1807 94.0229 24.0986 93.9599C24.078 93.944 24.0567 93.928 24.0361 93.9121C23.95 93.8453 23.8636 93.7775 23.7783 93.709C23.7232 93.6646 23.6681 93.6193 23.6133 93.5742C23.5656 93.535 23.5171 93.4959 23.4697 93.4561C23.4067 93.4031 23.3438 93.3489 23.2812 93.295C23.2238 93.2455 23.1664 93.195 23.1094 93.1446C23.0546 93.0963 22.9996 93.0473 22.9453 92.9982C22.9004 92.9576 22.8552 92.9163 22.8105 92.8752C22.7323 92.803 22.6546 92.7292 22.5771 92.6555C22.5463 92.6261 22.5141 92.5973 22.4834 92.5676C22.4319 92.5179 22.3812 92.4667 22.3301 92.4163C22.0614 92.1511 21.7971 91.8767 21.54 91.5923C21.3833 91.4188 21.2293 91.2407 21.0771 91.0601C21.0303 91.0045 20.982 90.9495 20.9355 90.8932C20.8953 90.8444 20.8563 90.794 20.8164 90.7448C20.6621 90.5541 20.5095 90.3599 20.3604 90.1619C20.2765 90.0506 20.1935 89.9377 20.1113 89.8241C20.1036 89.8134 20.0956 89.8025 20.0879 89.7919C20.0457 89.7333 20.0046 89.6733 19.9629 89.6142C19.4454 88.8801 18.9621 88.1002 18.5205 87.2758C18.4583 87.1596 18.3966 87.0423 18.3359 86.9243C18.2327 86.7448 18.1327 86.5643 18.0361 86.3834C17.972 86.2633 17.9108 86.1419 17.8496 86.0212C17.8168 85.9564 17.783 85.8919 17.751 85.8269C17.6015 85.5234 17.4623 85.2172 17.3311 84.9101C17.3016 84.8412 17.2717 84.7722 17.2432 84.7031C17.1945 84.5852 17.1486 84.4662 17.1025 84.3477C17.076 84.2794 17.0482 84.2113 17.0225 84.1427C16.9814 84.0331 16.9422 83.9227 16.9033 83.8127C16.8749 83.7323 16.8455 83.6521 16.8184 83.5715C16.8132 83.5563 16.8087 83.5409 16.8037 83.5257C16.1981 80.5564 16.4924 75.7656 18.2227 71.6435C38.8998 35.1377 75.3941 8.76718 118.396 1.83941ZM75.8174 47.7825C74.2775 41.7592 69.0587 34.9864 61.4229 36.9372C53.7879 38.8891 52.4603 47.3343 54 53.3574C55.5398 59.3804 61.6719 63.0155 67.6963 61.4768C73.7207 59.9371 77.357 53.8057 75.8174 47.7825Z" fill="white"/>
<path d="M141 102.015C162.539 102.015 180 119.472 180 141.006C180 162.541 162.539 179.998 141 179.998C119.461 179.998 102 162.541 102 141.006C102 119.472 119.461 102.015 141 102.015Z" fill="white"/>
</g>
<defs>
<clipPath id="clip0_90_6">
<rect width="282" height="282" rx="75" fill="white"/>
</clipPath>
</defs>
</svg>
