<svg width="282" height="282" viewBox="0 0 282 282" fill="none" xmlns="http://www.w3.org/2000/svg">
<g clip-path="url(#clip0_84_374)">
<path fill-rule="evenodd" clip-rule="evenodd" d="M3.00285 111.594C13.477 123.638 31.7508 129.373 47.5295 118.022C45.0556 128.282 44.2551 138.914 45.189 149.473C48.1388 184.501 70.3343 216.491 104.588 230.862C111.189 233.631 118.11 235.435 125.435 236.724L126.675 236.934C131.012 237.641 134.443 238.129 137.841 238.334C138.603 238.349 139.369 238.352 140.135 238.349C141.31 238.319 142.086 238.316 142.086 238.316C142.286 238.31 144.239 238.281 144.49 238.266C147.097 238.106 149.664 238.057 151.991 237.814C157.565 220.176 170.964 206.374 187.796 201.561C190.356 200.83 193.233 200.499 195.792 199.882C208.863 196.734 219.754 192.789 230.298 186.85C231.867 185.967 233.429 185.039 234.989 184.063C237.998 182.18 241.002 180.119 244.042 177.849L244.412 177.581C245.529 176.798 246.693 176.189 247.883 175.745C247.893 175.741 247.904 175.738 247.914 175.734C248.43 175.543 248.951 175.382 249.475 175.252C249.5 175.246 249.526 175.24 249.551 175.234C249.663 175.207 249.775 175.182 249.887 175.157C249.906 175.153 249.926 175.149 249.945 175.145C250.048 175.124 250.152 175.102 250.255 175.082C250.312 175.072 250.37 175.062 250.427 175.052C250.508 175.037 250.59 175.023 250.672 175.01C250.732 175.001 250.793 174.992 250.853 174.983C250.918 174.974 250.983 174.964 251.049 174.955C251.118 174.946 251.188 174.938 251.257 174.93C251.337 174.92 251.418 174.911 251.499 174.903C251.521 174.901 251.544 174.899 251.567 174.897C251.683 174.886 251.801 174.875 251.917 174.867C251.938 174.865 251.959 174.865 251.98 174.863C252.087 174.856 252.196 174.85 252.304 174.845C252.341 174.844 252.379 174.842 252.417 174.841C252.511 174.838 252.605 174.834 252.699 174.833C252.749 174.832 252.799 174.832 252.848 174.832C252.938 174.831 253.028 174.832 253.117 174.833C253.164 174.833 253.212 174.834 253.258 174.835C253.335 174.836 253.413 174.839 253.49 174.842C253.566 174.844 253.643 174.848 253.719 174.853C253.777 174.856 253.835 174.859 253.893 174.862C253.956 174.867 254.02 174.871 254.083 174.876C254.163 174.882 254.243 174.888 254.323 174.896C254.375 174.901 254.428 174.907 254.48 174.912C254.564 174.921 254.649 174.93 254.733 174.941C254.781 174.947 254.829 174.953 254.877 174.959C254.964 174.971 255.051 174.983 255.138 174.996C255.189 175.004 255.241 175.012 255.293 175.02C255.366 175.032 255.439 175.044 255.512 175.057C255.585 175.069 255.659 175.083 255.733 175.097C255.795 175.108 255.857 175.121 255.918 175.133C255.98 175.146 256.041 175.159 256.102 175.173C256.173 175.188 256.244 175.203 256.314 175.219C256.393 175.238 256.472 175.256 256.551 175.276C256.599 175.288 256.648 175.3 256.696 175.313C256.767 175.331 256.839 175.35 256.91 175.369C256.977 175.387 257.044 175.406 257.111 175.425C257.19 175.447 257.269 175.47 257.347 175.494C257.386 175.506 257.426 175.518 257.466 175.531C257.562 175.561 257.658 175.592 257.754 175.623C257.788 175.635 257.823 175.647 257.856 175.658C257.947 175.689 258.038 175.72 258.129 175.753C258.175 175.769 258.221 175.787 258.268 175.804C258.353 175.836 258.44 175.868 258.525 175.901C258.565 175.917 258.606 175.933 258.646 175.949C258.734 175.984 258.823 176.02 258.911 176.057C258.954 176.075 258.998 176.093 259.041 176.112C259.124 176.147 259.207 176.183 259.29 176.22C259.33 176.238 259.37 176.257 259.41 176.275C259.505 176.318 259.6 176.363 259.694 176.408C259.722 176.421 259.75 176.435 259.778 176.448C259.869 176.492 259.962 176.537 260.053 176.583C260.107 176.611 260.161 176.64 260.215 176.668C260.272 176.698 260.331 176.727 260.388 176.757C260.474 176.803 260.559 176.851 260.644 176.898C260.683 176.92 260.723 176.941 260.762 176.963C260.836 177.005 260.91 177.048 260.983 177.091C261.043 177.126 261.103 177.161 261.163 177.197C261.208 177.224 261.252 177.252 261.297 177.279C261.385 177.333 261.473 177.388 261.561 177.443C261.583 177.457 261.605 177.471 261.627 177.485C261.719 177.544 261.811 177.604 261.902 177.665C261.961 177.704 262.02 177.744 262.078 177.784C262.129 177.819 262.181 177.854 262.232 177.889C262.299 177.936 262.367 177.985 262.434 178.033C262.495 178.077 262.557 178.122 262.618 178.167C262.677 178.211 262.736 178.255 262.795 178.299C262.843 178.335 262.892 178.372 262.94 178.409C263.024 178.474 263.108 178.541 263.192 178.607C263.225 178.634 263.26 178.66 263.293 178.687C263.349 178.732 263.404 178.778 263.459 178.824C263.75 179.064 264.038 179.314 264.319 179.574C264.491 179.733 264.66 179.897 264.827 180.063C264.879 180.115 264.932 180.165 264.983 180.217C265.028 180.262 265.071 180.309 265.115 180.354C265.286 180.531 265.455 180.711 265.621 180.895C265.714 180.998 265.807 181.103 265.899 181.209C265.908 181.219 265.916 181.229 265.925 181.239C265.972 181.294 266.019 181.35 266.065 181.405C266.646 182.09 267.196 182.824 267.709 183.606C267.782 183.716 267.854 183.828 267.924 183.94C268.043 184.11 268.159 184.28 268.271 184.452C268.345 184.566 268.417 184.682 268.489 184.796C268.527 184.858 268.567 184.919 268.604 184.981C268.78 185.27 268.946 185.563 269.104 185.857C269.139 185.923 269.175 185.989 269.21 186.055C269.269 186.169 269.325 186.283 269.381 186.397C269.414 186.463 269.448 186.528 269.479 186.594C269.53 186.7 269.579 186.806 269.627 186.912C269.663 186.99 269.699 187.067 269.733 187.145C269.74 187.16 269.746 187.175 269.752 187.189C270.619 190.093 270.75 194.891 269.392 199.151C250.796 240.068 213.088 271.01 166.653 279.563C150.988 282.486 135.332 282.67 120.23 280.419C119.836 280.361 119.443 280.3 119.051 280.239C119.01 280.232 118.968 280.227 118.927 280.22L118.926 280.219C57.0815 270.495 7.28369 220.163 0.676613 155.264L0.503391 153.451C-0.776411 139.075 0.150664 125.011 3.00285 111.594ZM235.377 220.537C233.309 214.674 226.879 211.597 221.015 213.664C215.151 215.732 212.073 222.162 214.14 228.025C216.208 233.888 222.007 240.171 229.44 237.551C236.872 234.93 237.445 226.4 235.377 220.537Z" fill="url(#paint0_linear_84_374)"/>
<path fill-rule="evenodd" clip-rule="evenodd" d="M106.093 4.33364C119.058 1.01043 132.192 -0.3844 145.14 0.00871788L145.149 0.0295067C215.615 2.03838 274.989 56.5168 281.393 128.445L281.507 129.792C282.613 143.699 281.656 157.304 278.893 170.302C268.419 158.258 250.145 152.523 234.366 163.874C236.763 153.934 237.589 143.646 236.789 133.414L236.71 132.456C233.684 96.5225 210.401 63.7519 174.627 49.9543L173.452 49.509C170.442 48.3917 167.884 47.4841 165.439 46.7416C158.541 44.8307 151.626 44.3308 144.196 43.9797L142.941 43.9268C138.549 43.7751 135.083 43.7272 131.687 43.9543C131.084 44.0189 130.48 44.091 129.876 44.1674C124.286 61.7648 110.904 75.5303 94.0996 80.3345C91.5402 81.066 88.6633 81.3973 86.1037 82.0138C73.0332 85.1621 62.1424 89.1069 51.598 95.0455C50.0287 95.9291 48.4667 96.8573 46.9068 97.8333C43.8979 99.7162 40.8938 101.777 37.8537 104.047L37.4835 104.315C36.3667 105.098 35.2025 105.707 34.0125 106.151C34.0026 106.155 33.992 106.158 33.9821 106.162C33.4662 106.353 32.9452 106.514 32.421 106.644C32.396 106.65 32.3702 106.656 32.3451 106.662C32.2334 106.689 32.1209 106.714 32.0088 106.739C31.9898 106.743 31.9701 106.747 31.9511 106.751C31.848 106.772 31.7443 106.794 31.641 106.813C31.584 106.824 31.5263 106.834 31.4692 106.844C31.3877 106.859 31.3055 106.873 31.2239 106.886C31.1638 106.895 31.103 106.904 31.0429 106.913C30.9779 106.922 30.9125 106.932 30.8474 106.941C30.7781 106.95 30.7082 106.958 30.6389 106.966C30.5585 106.976 30.4775 106.985 30.3971 106.993C30.3746 106.995 30.3515 106.997 30.329 106.999C30.2125 107.01 30.0954 107.021 29.9787 107.029C29.9582 107.031 29.9369 107.031 29.9163 107.033C29.8086 107.04 29.7002 107.046 29.5924 107.051C29.5549 107.052 29.5166 107.054 29.4791 107.055C29.3851 107.058 29.2905 107.062 29.1965 107.063C29.147 107.064 29.097 107.064 29.0475 107.064C28.9581 107.064 28.8682 107.064 28.7788 107.063C28.7319 107.063 28.6844 107.062 28.6375 107.061C28.5606 107.06 28.4832 107.057 28.4064 107.054C28.3301 107.051 28.2533 107.047 28.177 107.043C28.1191 107.04 28.0605 107.037 28.0026 107.033C27.9396 107.029 27.8761 107.025 27.8132 107.02C27.7334 107.014 27.6529 107.008 27.5732 107C27.5209 106.995 27.4681 106.989 27.4158 106.984C27.3318 106.975 27.2472 106.965 27.1633 106.955C27.1152 106.949 27.0665 106.943 27.0185 106.937C26.9319 106.925 26.8448 106.913 26.7583 106.9C26.7068 106.892 26.6547 106.884 26.6032 106.876C26.5304 106.864 26.457 106.852 26.3843 106.839C26.3107 106.826 26.2365 106.813 26.1631 106.799C26.1014 106.787 26.0391 106.775 25.9775 106.763C25.9162 106.75 25.8547 106.737 25.7936 106.723C25.723 106.708 25.6519 106.693 25.5815 106.677C25.5028 106.658 25.4237 106.64 25.3451 106.62C25.2968 106.608 25.248 106.596 25.1997 106.583C25.1285 106.565 25.0568 106.546 24.9858 106.527C24.919 106.508 24.8515 106.49 24.7848 106.471C24.7064 106.449 24.6274 106.426 24.5492 106.402C24.5097 106.39 24.4697 106.378 24.4303 106.365C24.3341 106.335 24.2375 106.304 24.1416 106.272C24.1076 106.261 24.0734 106.249 24.0395 106.237C23.9488 106.207 23.8576 106.175 23.7673 106.143C23.7211 106.126 23.6746 106.109 23.6284 106.092C23.5427 106.06 23.4562 106.028 23.3708 105.995C23.3306 105.979 23.29 105.963 23.2499 105.947C23.1617 105.912 23.0732 105.876 22.9853 105.839C22.942 105.821 22.8982 105.803 22.8549 105.784C22.772 105.749 22.6886 105.713 22.6061 105.676C22.566 105.658 22.5256 105.639 22.4855 105.621C22.3909 105.578 22.2962 105.533 22.2021 105.488C22.1743 105.475 22.146 105.461 22.1181 105.448C22.0266 105.404 21.9344 105.359 21.8433 105.313C21.7891 105.285 21.7349 105.256 21.6809 105.228C21.6236 105.198 21.5653 105.169 21.5082 105.139C21.4224 105.093 21.3368 105.045 21.2515 104.998C21.2126 104.976 21.1728 104.955 21.134 104.933C21.0602 104.891 20.9862 104.848 20.9128 104.805C20.8529 104.77 20.7925 104.735 20.7328 104.699C20.6881 104.672 20.6435 104.644 20.599 104.617C20.511 104.563 20.4227 104.508 20.3354 104.453C20.3134 104.439 20.2908 104.425 20.2689 104.411C20.1771 104.352 20.0851 104.292 19.9941 104.231C19.9352 104.192 19.8763 104.152 19.8177 104.112C19.7668 104.077 19.715 104.042 19.6643 104.007C19.5967 103.96 19.5294 103.911 19.4623 103.863C19.4006 103.819 19.339 103.774 19.2777 103.729C19.2189 103.685 19.1598 103.641 19.1013 103.597C19.0529 103.561 19.0043 103.524 18.9562 103.487C18.8718 103.422 18.7879 103.355 18.7042 103.289C18.6709 103.262 18.6363 103.236 18.603 103.209C18.5474 103.164 18.4923 103.118 18.4369 103.072C18.1457 102.832 17.8582 102.582 17.5769 102.321C17.4054 102.163 17.2362 101.999 17.0687 101.832C17.017 101.781 16.964 101.731 16.9128 101.679C16.8684 101.634 16.8251 101.587 16.781 101.541C16.6103 101.365 16.4411 101.185 16.275 101.001C16.1817 100.898 16.0889 100.793 15.997 100.687C15.9884 100.677 15.9794 100.667 15.9708 100.657C15.9236 100.602 15.8774 100.546 15.8306 100.491C15.2501 99.8057 14.6995 99.0718 14.1865 98.2898C14.1142 98.1795 14.0424 98.0681 13.9715 97.956C13.8528 97.7864 13.7371 97.6155 13.6249 97.4438C13.5504 97.3299 13.4786 97.2144 13.407 97.0996C13.3686 97.038 13.3292 96.9767 13.2915 96.9148C13.1157 96.6257 12.9499 96.3331 12.792 96.0389C12.7565 95.9728 12.7206 95.9068 12.6861 95.8405C12.6271 95.7273 12.5709 95.6128 12.5145 95.499C12.482 95.4332 12.4482 95.3678 12.4166 95.3018C12.3659 95.1963 12.3171 95.0898 12.2686 94.9837C12.2332 94.9061 12.1968 94.8289 12.1626 94.751C12.1562 94.7363 12.1503 94.7213 12.144 94.7066C11.2774 91.8027 11.1458 87.0047 12.5037 82.7454C29.8623 44.55 63.8745 15.0473 106.093 4.33364ZM67.7557 53.8713C65.6878 48.0083 59.889 41.725 52.4562 44.3452C45.0244 46.9664 44.4509 55.4961 46.5186 61.3589C48.5865 67.2216 55.0168 70.2986 60.8809 68.2318C66.7451 66.164 69.8234 59.7343 67.7557 53.8713Z" fill="url(#paint1_linear_84_374)"/>
<path d="M137.49 102.11C158.945 100.2 177.885 116.04 179.794 137.49C181.704 158.939 165.86 177.876 144.405 179.786C122.951 181.696 104.011 165.856 102.102 144.406C100.192 122.957 116.036 104.02 137.49 102.11Z" fill="url(#paint2_linear_84_374)"/>
</g>
<defs>
<linearGradient id="paint0_linear_84_374" x1="31.4498" y1="27.786" x2="249.898" y2="246.281" gradientUnits="userSpaceOnUse">
<stop stop-color="#24C8DB"/>
<stop offset="1" stop-color="#23608B"/>
</linearGradient>
<linearGradient id="paint1_linear_84_374" x1="31.4498" y1="27.786" x2="249.898" y2="246.281" gradientUnits="userSpaceOnUse">
<stop stop-color="#24C8DB"/>
<stop offset="1" stop-color="#23608B"/>
</linearGradient>
<linearGradient id="paint2_linear_84_374" x1="31.4498" y1="27.786" x2="249.898" y2="246.281" gradientUnits="userSpaceOnUse">
<stop stop-color="#24C8DB"/>
<stop offset="1" stop-color="#23608B"/>
</linearGradient>
<clipPath id="clip0_84_374">
<rect width="282" height="282" rx="75" fill="white"/>
</clipPath>
</defs>
</svg>
