<svg width="64" height="64" viewBox="0 0 64 64" fill="#6aab73" xmlns="http://www.w3.org/2000/svg">
    <path fill-rule="evenodd" clip-rule="evenodd"
          d="M30.7227 15.5444C31.1441 15.5102 31.5701 15.4928 32.0001 15.4928C40.7241 15.4928 47.7963 22.6702 47.7963 31.5239C47.7963 32.1995 47.7551 32.8653 47.6752 33.5189C47.5584 37.3079 46.4624 40.8562 44.6455 44.0208C41.4358 49.6113 36.0555 53.8943 30.1089 56.4189C25.288 58.4655 19.9191 59.4314 14.7761 58.8991C19.7484 62.1281 25.6588 64 32 64C49.6731 64 64 49.46 64 31.524C64 18.1536 56.0386 6.67033 44.6644 1.69058C34.5582 -1.3401 27.8668 0.233713 23.8041 2.28848C21.7239 3.34053 20.2497 4.56106 19.3125 5.49246C19.0183 5.78484 18.778 6.04774 18.5896 6.26646V15.5444H30.7227ZM30.6279 7.89435C30.6279 9.89359 29.031 11.5143 27.061 11.5143C25.0911 11.5143 23.4942 9.89359 23.4942 7.89435C23.4942 5.89512 25.0911 4.27442 27.061 4.27442C29.031 4.27442 30.6279 5.89512 30.6279 7.89435Z"/>
    <path d="M12.3731 5.87201C4.84393 11.8139 0 21.0949 0 31.524C0 36.1951 0.971697 40.6358 2.72114 44.6494C5.05614 48.8325 8.61302 51.2283 12.6889 52.252C17.354 53.4238 22.7847 52.8016 27.7492 50.694C29.7619 49.8395 31.654 48.7597 33.3536 47.497C32.9074 47.5354 32.456 47.5551 32.0001 47.5551C23.2761 47.5551 16.204 40.3777 16.204 31.5239C16.204 27.8917 17.3942 24.5416 19.4005 21.8535H12.3731V5.87201Z"/>
    <path d="M32.1328 40.8963C37.4127 40.8963 41.6929 36.616 41.6929 31.3361C41.6929 26.0562 37.4127 21.7759 32.1328 21.7759C26.8528 21.7759 22.5726 26.0562 22.5726 31.3361C22.5726 36.616 26.8528 40.8963 32.1328 40.8963Z"/>
    <path d="M12.3731 5.87201C4.84393 11.8139 0 21.0949 0 31.524C0 36.1951 0.971697 40.6358 2.72114 44.6494C5.05614 48.8325 8.61302 51.2283 12.6889 52.252C17.354 53.4238 22.7847 52.8016 27.7492 50.694C29.7619 49.8395 31.654 48.7597 33.3536 47.497C32.9074 47.5354 32.456 47.5551 32.0001 47.5551C23.2761 47.5551 16.204 40.3777 16.204 31.5239C16.204 27.8917 17.3942 24.5416 19.4005 21.8535H12.3731V5.87201Z"/>
</svg>
